<svg width="9" height="16" viewBox="0 0 9 16" fill="none" xmlns="http://www.w3.org/2000/svg">
<path d="M0 7.7959C0 8.10352 0.114258 8.36719 0.360352 8.5957L7.19824 15.293C7.3916 15.4863 7.6377 15.5918 7.92773 15.5918C8.50781 15.5918 8.97363 15.1348 8.97363 14.5459C8.97363 14.2559 8.85059 14.001 8.65723 13.7988L2.49609 7.7959L8.65723 1.79297C8.85059 1.59082 8.97363 1.32715 8.97363 1.0459C8.97363 0.457031 8.50781 0 7.92773 0C7.6377 0 7.3916 0.105469 7.19824 0.298828L0.360352 6.9873C0.114258 7.22461 0 7.48828 0 7.7959Z" fill="#1A1B22"/>
</svg>
