<svg width="50" height="50" viewBox="0 0 50 50" fill="none" xmlns="http://www.w3.org/2000/svg">
<g clip-path="url(#clip0_320_2591)">
<circle cx="25" cy="25" r="25" fill="#1A1B22"/>
<path fill-rule="evenodd" clip-rule="evenodd" d="M17 21C16.7347 21 16.4803 21.1054 16.2928 21.2929C16.1053 21.4803 16 21.7347 16 22V32C16 32.2653 16.1053 32.5197 16.2928 32.7071C16.4803 32.8946 16.7347 33 17 33H33C33.2651 33 33.5194 32.8947 33.707 32.7071C33.8946 32.5194 34 32.265 34 32V22C34 21.735 33.8946 21.4806 33.707 21.2929C33.5194 21.1053 33.2651 21 33 21H31V19H33C33.7957 19 34.5586 19.3161 35.1212 19.8787C35.6836 20.4412 36 21.2042 36 22V32C36 32.7958 35.6836 33.5588 35.1212 34.1213C34.5586 34.6839 33.7957 35 33 35H17C16.2044 35 15.4412 34.684 14.8786 34.1213C14.3159 33.5586 14 32.7955 14 32V22C14 21.2045 14.3159 20.4414 14.8786 19.8787C15.4412 19.316 16.2044 19 17 19H19V21H17Z" fill="white"/>
<path fill-rule="evenodd" clip-rule="evenodd" d="M24 29V14H26V29H24Z" fill="white"/>
<path fill-rule="evenodd" clip-rule="evenodd" d="M24.293 29.7071L19.293 24.7071L20.7072 23.2929L25.0001 27.5858L29.293 23.2929L30.7072 24.7071L25.7072 29.7071C25.3167 30.0976 24.6835 30.0976 24.293 29.7071Z" fill="white"/>
</g>
<defs>
<clipPath id="clip0_320_2591">
<rect width="50" height="50" fill="white"/>
</clipPath>
</defs>
</svg>
